PathFileType	4	(X/Y/Z)	C:\Users\italobelli\Desktop\GitHub\PTbot_officialCBL\Personal_Results\FLX03_noisy2.trc
DataRate	CameraRate	NumFrames	NumMarkers	Units	OrigDataRate	OrigDataStartFrame	OrigNumFrames
106.125000	106.125000	30	9	m	106.125000	213	850
Frame#	Time		gu		centelbow		EpL		centpxt8		centijc7		ij		ts		aa		ai
			X1	Y1	Z1	X2	Y2	Z2	X3	Y3	Z3	X4	Y4	Z4	X5	Y5	Z5	X6	Y6	Z6	X7	Y7	Z7	X8	Y8	Z8	X9	Y9	Z9

213	1.9976	-0.066265	0.02125	0.15179	0.15411	-0.042761	0.23971	0.15119	-0.015251	0.25627	-0.046816	-0.15316	-0.008669	-0.046816	0.031938	-0.008669	0	0	0	-0.14725	-0.003034	0.061764	-0.099261	0.04453	0.16004	-0.13556	-0.10442	0.11145
214	2.0071	-0.066292	0.021821	0.1514	0.15454	-0.039389	0.23967	0.15141	-0.011806	0.25606	-0.046816	-0.15316	-0.008669	-0.046816	0.031938	-0.008669	0	0	0	-0.14733	-0.0032023	0.061802	-0.099206	0.044959	0.15976	-0.1354	-0.10435	0.11202
215	2.0165	-0.066343	0.022405	0.151	0.15492	-0.035976	0.23961	0.15157	-0.008322	0.25583	-0.046816	-0.15316	-0.008669	-0.046816	0.031938	-0.008669	0	0	0	-0.14742	-0.0033608	0.061838	-0.099161	0.045402	0.15947	-0.13525	-0.10425	0.11259
216	2.0259	-0.066416	0.023	0.15058	0.15525	-0.032521	0.23955	0.15167	-0.0047994	0.25559	-0.046816	-0.15316	-0.008669	-0.046816	0.031938	-0.008669	0	0	0	-0.14751	-0.0035098	0.061869	-0.099126	0.045862	0.15917	-0.1351	-0.10414	0.11317
217	2.0353	-0.066511	0.023606	0.15015	0.15554	-0.029026	0.23948	0.15172	-0.0012401	0.25533	-0.046816	-0.15316	-0.008669	-0.046816	0.031938	-0.008669	0	0	0	-0.1476	-0.0036498	0.061898	-0.099101	0.046335	0.15885	-0.13496	-0.10401	0.11374
218	2.0448	-0.066627	0.024222	0.14971	0.15579	-0.025494	0.2394	0.15172	0.0023534	0.25506	-0.046816	-0.15316	-0.008669	-0.046816	0.031938	-0.008669	0	0	0	-0.14769	-0.0037811	0.061923	-0.099086	0.046822	0.15852	-0.13483	-0.10385	0.11433
219	2.0542	-0.066764	0.024848	0.14926	0.15599	-0.021926	0.2393	0.15166	0.0059791	0.25478	-0.046816	-0.15316	-0.008669	-0.046816	0.031938	-0.008669	0	0	0	-0.14778	-0.0039041	0.061946	-0.09908	0.047323	0.15818	-0.1347	-0.10367	0.11491
220	2.0636	-0.06692	0.025482	0.1488	0.15614	-0.018325	0.23921	0.15155	0.0096347	0.25448	-0.046816	-0.15316	-0.008669	-0.046816	0.031938	-0.008669	0	0	0	-0.14787	-0.0040191	0.061965	-0.099083	0.047835	0.15783	-0.13458	-0.10348	0.11549
221	2.073	-0.067096	0.026124	0.14832	0.15626	-0.014693	0.2391	0.15139	0.013318	0.25418	-0.046816	-0.15316	-0.008669	-0.046816	0.031938	-0.008669	0	0	0	-0.14797	-0.0041266	0.061981	-0.099096	0.048359	0.15747	-0.13446	-0.10327	0.11608
222	2.0824	-0.067289	0.026774	0.14783	0.15633	-0.011032	0.23898	0.15118	0.017026	0.25385	-0.046816	-0.15316	-0.008669	-0.046816	0.031938	-0.008669	0	0	0	-0.14807	-0.0042268	0.061995	-0.099117	0.048893	0.15709	-0.13435	-0.10304	0.11667
223	2.0919	-0.0675	0.02743	0.14734	0.15635	-0.0073448	0.23886	0.15092	0.020758	0.25352	-0.046816	-0.15316	-0.008669	-0.046816	0.031938	-0.008669	0	0	0	-0.14816	-0.0043202	0.062005	-0.099146	0.049438	0.15671	-0.13424	-0.10279	0.11725
224	2.1013	-0.067727	0.028092	0.14683	0.15634	-0.0036332	0.23872	0.15061	0.024511	0.25318	-0.046816	-0.15316	-0.008669	-0.046816	0.031938	-0.008669	0	0	0	-0.14826	-0.0044071	0.062013	-0.099184	0.049992	0.15632	-0.13413	-0.10253	0.11784
225	2.1107	-0.067971	0.028758	0.14632	0.15628	0.00010051	0.23858	0.15026	0.028282	0.25282	-0.046816	-0.15316	-0.008669	-0.046816	0.031938	-0.008669	0	0	0	-0.14836	-0.0044879	0.062017	-0.09923	0.050554	0.15591	-0.13403	-0.10225	0.11843
226	2.1201	-0.068229	0.029429	0.1458	0.15619	0.0038541	0.23843	0.14986	0.03207	0.25246	-0.046816	-0.15316	-0.008669	-0.046816	0.031938	-0.008669	0	0	0	-0.14846	-0.004563	0.062019	-0.099284	0.051124	0.1555	-0.13393	-0.10196	0.11902
227	2.1296	-0.068502	0.030104	0.14527	0.15605	0.0076255	0.23828	0.14941	0.035873	0.25208	-0.046816	-0.15316	-0.008669	-0.046816	0.031938	-0.008669	0	0	0	-0.14856	-0.0046328	0.062019	-0.099346	0.051701	0.15508	-0.13384	-0.10165	0.1196
228	2.139	-0.068789	0.030781	0.14473	0.15588	0.011412	0.23811	0.14892	0.039687	0.25169	-0.046816	-0.15316	-0.008669	-0.046816	0.031938	-0.008669	0	0	0	-0.14866	-0.0046975	0.062016	-0.099415	0.052284	0.15465	-0.13375	-0.10133	0.12019
229	2.1484	-0.069088	0.03146	0.14419	0.15566	0.015212	0.23794	0.14839	0.043511	0.25129	-0.046816	-0.15316	-0.008669	-0.046816	0.031938	-0.008669	0	0	0	-0.14876	-0.0047576	0.06201	-0.099492	0.052873	0.15422	-0.13366	-0.101	0.12077
230	2.1578	-0.0694	0.032141	0.14364	0.15541	0.019024	0.23776	0.14781	0.047342	0.25088	-0.046816	-0.15316	-0.008669	-0.046816	0.031938	-0.008669	0	0	0	-0.14886	-0.0048135	0.062001	-0.099575	0.053467	0.15378	-0.13358	-0.10066	0.12135
231	2.1673	-0.069723	0.032822	0.14308	0.15512	0.022844	0.23758	0.1472	0.051179	0.25046	-0.046816	-0.15316	-0.008669	-0.046816	0.031938	-0.008669	0	0	0	-0.14896	-0.0048655	0.061991	-0.099665	0.054064	0.15333	-0.1335	-0.10031	0.12193
232	2.1767	-0.070057	0.033503	0.14252	0.15479	0.026671	0.23739	0.14654	0.055019	0.25004	-0.046816	-0.15316	-0.008669	-0.046816	0.031938	-0.008669	0	0	0	-0.14907	-0.004914	0.061977	-0.099762	0.054665	0.15287	-0.13342	-0.099947	0.12251
233	2.1861	-0.0704	0.034183	0.14196	0.15443	0.030502	0.23719	0.14584	0.05886	0.2496	-0.046816	-0.15316	-0.008669	-0.046816	0.031938	-0.008669	0	0	0	-0.14917	-0.0049593	0.061962	-0.099865	0.055268	0.15241	-0.13334	-0.099575	0.12308
234	2.1955	-0.070753	0.034861	0.14139	0.15403	0.034335	0.23699	0.14511	0.0627	0.24916	-0.046816	-0.15316	-0.008669	-0.046816	0.031938	-0.008669	0	0	0	-0.14927	-0.0050019	0.061944	-0.099974	0.055873	0.15195	-0.13326	-0.099195	0.12365
235	2.2049	-0.071114	0.035537	0.14082	0.15359	0.038169	0.23678	0.14434	0.066536	0.2487	-0.046816	-0.15316	-0.008669	-0.046816	0.031938	-0.008669	0	0	0	-0.14937	-0.0050421	0.061924	-0.10009	0.056479	0.15147	-0.13319	-0.098808	0.12422
236	2.2144	-0.071483	0.03621	0.14025	0.15312	0.042001	0.23656	0.14353	0.070366	0.24824	-0.046816	-0.15316	-0.008669	-0.046816	0.031938	-0.008669	0	0	0	-0.14947	-0.0050803	0.061901	-0.10021	0.057085	0.151	-0.13311	-0.098414	0.12478
237	2.2238	-0.071859	0.036879	0.13967	0.15261	0.045828	0.23634	0.14269	0.074188	0.24777	-0.046816	-0.15316	-0.008669	-0.046816	0.031938	-0.008669	0	0	0	-0.14957	-0.0051168	0.061877	-0.10034	0.057691	0.15052	-0.13304	-0.098014	0.12534
238	2.2332	-0.07224	0.037543	0.13909	0.15207	0.049648	0.23611	0.14182	0.078	0.24729	-0.046816	-0.15316	-0.008669	-0.046816	0.031938	-0.008669	0	0	0	-0.14967	-0.005152	0.06185	-0.10047	0.058296	0.15004	-0.13297	-0.097608	0.12589
239	2.2426	-0.072627	0.038202	0.13851	0.1515	0.05346	0.23588	0.14091	0.081799	0.24681	-0.046816	-0.15316	-0.008669	-0.046816	0.031938	-0.008669	0	0	0	-0.14977	-0.0051863	0.061821	-0.10061	0.058899	0.14955	-0.1329	-0.097199	0.12644
240	2.2521	-0.073019	0.038855	0.13793	0.1509	0.057261	0.23564	0.13997	0.085583	0.24632	-0.046816	-0.15316	-0.008669	-0.046816	0.031938	-0.008669	0	0	0	-0.14987	-0.0052201	0.061791	-0.10075	0.059499	0.14907	-0.13283	-0.096785	0.12698
241	2.2615	-0.073415	0.0395	0.13735	0.15026	0.061048	0.2354	0.139	0.089351	0.24582	-0.046816	-0.15316	-0.008669	-0.046816	0.031938	-0.008669	0	0	0	-0.14997	-0.0052537	0.061758	-0.10089	0.060095	0.14858	-0.13275	-0.096368	0.12752
242	2.2709	-0.073813	0.040139	0.13677	0.14959	0.064821	0.23515	0.13799	0.093099	0.24531	-0.046816	-0.15316	-0.008669	-0.046816	0.031938	-0.008669	0	0	0	-0.15006	-0.0052875	0.061723	-0.10104	0.060688	0.14808	-0.13268	-0.09595	0.12805
